<svg xmlns="http://www.w3.org/2000/svg" viewBox="0 0 1400 2000">
  <!-- Background -->
  <rect width="1400" height="2000" fill="#ffffff"/>
  
  <!-- Header -->
  <rect x="0" y="0" width="1400" height="100" fill="#030712"/>
  <text x="700" y="55" font-family="system-ui, sans-serif" font-size="28" fill="#ffffff" text-anchor="middle" font-weight="700" letter-spacing="6">METRICFRAME</text>
  <text x="700" y="80" font-family="system-ui, sans-serif" font-size="11" fill="#ffffff" text-anchor="middle" letter-spacing="4" opacity="0.7">BRAND IDENTITY GUIDELINES</text>
  
  <!-- Section 1: Primary Logo -->
  <text x="100" y="150" font-family="system-ui, sans-serif" font-size="13" fill="#0ea5e9" font-weight="600" letter-spacing="2">01 — PRIMARY LOGO</text>
  <line x1="100" y1="165" x2="1300" y2="165" stroke="#e2e8f0" stroke-width="1"/>
  
  <!-- Light mode logo - FIXED CENTERING -->
  <text x="350" y="200" font-family="system-ui, sans-serif" font-size="11" fill="#64748b" text-anchor="middle" font-weight="500">LIGHT MODE</text>
  <g transform="translate(230, 220)">
    <rect x="0" y="0" width="240" height="200" rx="16" fill="#ffffff" stroke="#e2e8f0" stroke-width="1"/>
    <!-- Frame: 140x120 centered in 240x200 = starts at (50, 40) -->
    <rect x="50" y="40" width="140" height="120" rx="12" fill="none" stroke="#030712" stroke-width="7"/>
    <!-- Bars centered in frame: frame inner area is 140x120, bars should be centered -->
    <!-- 3 bars of width 22 with 15px gaps = 22+15+22+15+22 = 96px total width -->
    <!-- Center offset: (140-96)/2 = 22px from frame edge, so 50+22 = 72 -->
    <!-- Bar heights: 50, 70, 90. Frame inner height ~106 (120-14 for stroke). Center vertically -->
    <rect x="72" y="90" width="22" height="50" rx="3" fill="#0ea5e9"/>
    <rect x="109" y="80" width="22" height="60" rx="3" fill="#0ea5e9"/>
    <rect x="146" y="70" width="22" height="70" rx="3" fill="#0ea5e9"/>
  </g>
  
  <!-- Dark mode logo - FIXED CENTERING -->
  <text x="1050" y="200" font-family="system-ui, sans-serif" font-size="11" fill="#64748b" text-anchor="middle" font-weight="500">DARK MODE</text>
  <g transform="translate(930, 220)">
    <rect x="0" y="0" width="240" height="200" rx="16" fill="#030712"/>
    <rect x="50" y="40" width="140" height="120" rx="12" fill="none" stroke="#ffffff" stroke-width="7"/>
    <rect x="72" y="90" width="22" height="50" rx="3" fill="#0ea5e9"/>
    <rect x="109" y="80" width="22" height="60" rx="3" fill="#0ea5e9"/>
    <rect x="146" y="70" width="22" height="70" rx="3" fill="#0ea5e9"/>
  </g>
  
  <!-- Wordmark centered -->
  <text x="700" y="480" font-family="system-ui, sans-serif" font-size="48" fill="#030712" text-anchor="middle" font-weight="700" letter-spacing="3">METRICFRAME</text>
  <text x="700" y="515" font-family="system-ui, sans-serif" font-size="13" fill="#64748b" text-anchor="middle" letter-spacing="6">AI & CYBER RISK METRICS</text>
  
  <!-- Section 2: Logo Lockups -->
  <text x="100" y="590" font-family="system-ui, sans-serif" font-size="13" fill="#0ea5e9" font-weight="600" letter-spacing="2">02 — LOGO LOCKUPS</text>
  <line x1="100" y1="605" x2="1300" y2="605" stroke="#e2e8f0" stroke-width="1"/>
  
  <!-- Horizontal Light - FIXED -->
  <text x="100" y="650" font-family="system-ui, sans-serif" font-size="10" fill="#94a3b8" font-weight="500">HORIZONTAL — LIGHT</text>
  <g transform="translate(100, 670)">
    <!-- Frame 80x70, bars centered inside -->
    <rect x="0" y="0" width="80" height="70" rx="8" fill="none" stroke="#030712" stroke-width="5"/>
    <!-- 3 bars: 12px wide, 8px gap = 12+8+12+8+12 = 52px. Center: (80-52)/2 = 14 -->
    <!-- Heights: 24, 32, 40. Bottom aligned at y=54 (70-16 padding) -->
    <rect x="14" y="30" width="12" height="24" rx="2" fill="#0ea5e9"/>
    <rect x="34" y="22" width="12" height="32" rx="2" fill="#0ea5e9"/>
    <rect x="54" y="14" width="12" height="40" rx="2" fill="#0ea5e9"/>
    <text x="105" y="46" font-family="system-ui, sans-serif" font-size="34" fill="#030712" font-weight="700" letter-spacing="1">METRICFRAME</text>
  </g>
  
  <!-- Horizontal Dark - FIXED -->
  <text x="100" y="800" font-family="system-ui, sans-serif" font-size="10" fill="#94a3b8" font-weight="500">HORIZONTAL — DARK</text>
  <g transform="translate(100, 820)">
    <rect x="-20" y="-20" width="540" height="110" rx="12" fill="#030712"/>
    <rect x="0" y="0" width="80" height="70" rx="8" fill="none" stroke="#ffffff" stroke-width="5"/>
    <rect x="14" y="30" width="12" height="24" rx="2" fill="#0ea5e9"/>
    <rect x="34" y="22" width="12" height="32" rx="2" fill="#0ea5e9"/>
    <rect x="54" y="14" width="12" height="40" rx="2" fill="#0ea5e9"/>
    <text x="105" y="46" font-family="system-ui, sans-serif" font-size="34" fill="#ffffff" font-weight="700" letter-spacing="1">METRICFRAME</text>
  </g>
  
  <!-- Stacked Light - FIXED -->
  <text x="750" y="650" font-family="system-ui, sans-serif" font-size="10" fill="#94a3b8" font-weight="500">STACKED — LIGHT</text>
  <g transform="translate(750, 670)">
    <!-- Frame 90x80, centered bars -->
    <rect x="30" y="0" width="90" height="80" rx="8" fill="none" stroke="#030712" stroke-width="5"/>
    <!-- 3 bars: 14px wide, 10px gap = 14+10+14+10+14 = 62px. Center in 90: (90-62)/2 = 14, so start at 30+14=44 -->
    <!-- Heights: 28, 38, 48. Bottom at 66 (80-14 padding) -->
    <rect x="44" y="38" width="14" height="28" rx="2" fill="#0ea5e9"/>
    <rect x="68" y="28" width="14" height="38" rx="2" fill="#0ea5e9"/>
    <rect x="92" y="18" width="14" height="48" rx="2" fill="#0ea5e9"/>
    <text x="75" y="105" font-family="system-ui, sans-serif" font-size="22" fill="#030712" text-anchor="middle" font-weight="700" letter-spacing="1">METRICFRAME</text>
    <text x="75" y="125" font-family="system-ui, sans-serif" font-size="8" fill="#64748b" text-anchor="middle" letter-spacing="2">AI & CYBER RISK METRICS</text>
  </g>
  
  <!-- Stacked Dark - FIXED -->
  <text x="750" y="800" font-family="system-ui, sans-serif" font-size="10" fill="#94a3b8" font-weight="500">STACKED — DARK</text>
  <g transform="translate(750, 820)">
    <rect x="-10" y="-20" width="170" height="170" rx="12" fill="#030712"/>
    <rect x="30" y="0" width="90" height="80" rx="8" fill="none" stroke="#ffffff" stroke-width="5"/>
    <rect x="44" y="38" width="14" height="28" rx="2" fill="#0ea5e9"/>
    <rect x="68" y="28" width="14" height="38" rx="2" fill="#0ea5e9"/>
    <rect x="92" y="18" width="14" height="48" rx="2" fill="#0ea5e9"/>
    <text x="75" y="105" font-family="system-ui, sans-serif" font-size="22" fill="#ffffff" text-anchor="middle" font-weight="700" letter-spacing="1">METRICFRAME</text>
    <text x="75" y="125" font-family="system-ui, sans-serif" font-size="8" fill="#94a3b8" text-anchor="middle" letter-spacing="2">AI & CYBER RISK METRICS</text>
  </g>
  
  <!-- Compact - FIXED -->
  <text x="1050" y="650" font-family="system-ui, sans-serif" font-size="10" fill="#94a3b8" font-weight="500">COMPACT</text>
  <g transform="translate(1050, 670)">
    <!-- Frame 50x44 -->
    <rect x="0" y="10" width="50" height="44" rx="6" fill="none" stroke="#030712" stroke-width="4"/>
    <!-- 3 bars: 8px wide, 5px gap = 8+5+8+5+8 = 34px. Center: (50-34)/2 = 8 -->
    <!-- Heights: 16, 22, 28. Bottom at 46 (10+44-8 padding) -->
    <rect x="8" y="30" width="8" height="16" rx="1" fill="#0ea5e9"/>
    <rect x="21" y="24" width="8" height="22" rx="1" fill="#0ea5e9"/>
    <rect x="34" y="18" width="8" height="28" rx="1" fill="#0ea5e9"/>
    <text x="68" y="42" font-family="system-ui, sans-serif" font-size="20" fill="#030712" font-weight="700" letter-spacing="1">METRICFRAME</text>
  </g>
  
  <!-- Section 3: Icon Mark -->
  <text x="100" y="1020" font-family="system-ui, sans-serif" font-size="13" fill="#0ea5e9" font-weight="600" letter-spacing="2">03 — ICON MARK</text>
  <line x1="100" y1="1035" x2="1300" y2="1035" stroke="#e2e8f0" stroke-width="1"/>
  
  <!-- Light Mode Icons - ALL FIXED -->
  <text x="100" y="1075" font-family="system-ui, sans-serif" font-size="10" fill="#94a3b8" font-weight="500">LIGHT MODE</text>
  
  <!-- 100px icon -->
  <g transform="translate(100, 1095)">
    <rect x="0" y="0" width="100" height="100" rx="20" fill="#ffffff" stroke="#e2e8f0" stroke-width="1"/>
    <!-- Frame 68x68 centered: starts at 16,16 -->
    <rect x="16" y="16" width="68" height="68" rx="10" fill="none" stroke="#030712" stroke-width="5"/>
    <!-- 3 bars: 12px wide, 6px gap = 12+6+12+6+12 = 48px. Center in 68: (68-48)/2 = 10, so start at 16+10=26 -->
    <!-- Heights: 26, 36, 46. Bottom at 74 (16+68-10 padding) -->
    <rect x="26" y="48" width="12" height="26" rx="2" fill="#0ea5e9"/>
    <rect x="44" y="38" width="12" height="36" rx="2" fill="#0ea5e9"/>
    <rect x="62" y="28" width="12" height="46" rx="2" fill="#0ea5e9"/>
    <text x="50" y="120" font-family="system-ui, sans-serif" font-size="9" fill="#64748b" text-anchor="middle">100px</text>
  </g>
  
  <!-- 64px icon -->
  <g transform="translate(220, 1095)">
    <rect x="0" y="18" width="64" height="64" rx="14" fill="#ffffff" stroke="#e2e8f0" stroke-width="1"/>
    <!-- Frame 44x44 centered: starts at 10, 28 -->
    <rect x="10" y="28" width="44" height="44" rx="7" fill="none" stroke="#030712" stroke-width="4"/>
    <!-- 3 bars: 8px wide, 4px gap = 8+4+8+4+8 = 32px. Center in 44: (44-32)/2 = 6, so start at 10+6=16 -->
    <rect x="16" y="52" width="8" height="14" rx="1.5" fill="#0ea5e9"/>
    <rect x="28" y="46" width="8" height="20" rx="1.5" fill="#0ea5e9"/>
    <rect x="40" y="40" width="8" height="26" rx="1.5" fill="#0ea5e9"/>
    <text x="32" y="120" font-family="system-ui, sans-serif" font-size="9" fill="#64748b" text-anchor="middle">64px</text>
  </g>
  
  <!-- 48px icon -->
  <g transform="translate(310, 1095)">
    <rect x="0" y="26" width="48" height="48" rx="10" fill="#ffffff" stroke="#e2e8f0" stroke-width="1"/>
    <!-- Frame 32x32 centered: starts at 8, 34 -->
    <rect x="8" y="34" width="32" height="32" rx="5" fill="none" stroke="#030712" stroke-width="3"/>
    <!-- 3 bars: 6px wide, 3px gap = 6+3+6+3+6 = 24px. Center in 32: (32-24)/2 = 4, so start at 8+4=12 -->
    <rect x="12" y="52" width="6" height="10" rx="1" fill="#0ea5e9"/>
    <rect x="21" y="48" width="6" height="14" rx="1" fill="#0ea5e9"/>
    <rect x="30" y="44" width="6" height="18" rx="1" fill="#0ea5e9"/>
    <text x="24" y="120" font-family="system-ui, sans-serif" font-size="9" fill="#64748b" text-anchor="middle">48px</text>
  </g>
  
  <!-- 32px icon -->
  <g transform="translate(385, 1095)">
    <rect x="0" y="34" width="32" height="32" rx="7" fill="#ffffff" stroke="#e2e8f0" stroke-width="1"/>
    <!-- Frame 22x22 centered: starts at 5, 39 -->
    <rect x="5" y="39" width="22" height="22" rx="4" fill="none" stroke="#030712" stroke-width="2"/>
    <!-- 3 bars: 4px wide, 2px gap = 4+2+4+2+4 = 16px. Center in 22: (22-16)/2 = 3, so start at 5+3=8 -->
    <rect x="8" y="51" width="4" height="7" rx="0.5" fill="#0ea5e9"/>
    <rect x="14" y="48" width="4" height="10" rx="0.5" fill="#0ea5e9"/>
    <rect x="20" y="45" width="4" height="13" rx="0.5" fill="#0ea5e9"/>
    <text x="16" y="120" font-family="system-ui, sans-serif" font-size="9" fill="#64748b" text-anchor="middle">32px</text>
  </g>
  
  <!-- 16px icon -->
  <g transform="translate(445, 1095)">
    <rect x="0" y="42" width="16" height="16" rx="3" fill="#ffffff" stroke="#e2e8f0" stroke-width="0.5"/>
    <!-- Frame 12x12 centered: starts at 2, 44 -->
    <rect x="2" y="44" width="12" height="12" rx="2" fill="none" stroke="#030712" stroke-width="1.5"/>
    <!-- 3 bars: 2px wide, 1px gap = 2+1+2+1+2 = 8px. Center in 12: (12-8)/2 = 2, so start at 2+2=4 -->
    <rect x="4" y="51" width="2" height="4" rx="0.5" fill="#0ea5e9"/>
    <rect x="7" y="49" width="2" height="6" rx="0.5" fill="#0ea5e9"/>
    <rect x="10" y="47" width="2" height="8" rx="0.5" fill="#0ea5e9"/>
    <text x="8" y="120" font-family="system-ui, sans-serif" font-size="9" fill="#64748b" text-anchor="middle">16px</text>
  </g>
  
  <!-- Dark Mode Icons - ALL FIXED -->
  <text x="550" y="1075" font-family="system-ui, sans-serif" font-size="10" fill="#94a3b8" font-weight="500">DARK MODE</text>
  
  <!-- 100px dark -->
  <g transform="translate(550, 1095)">
    <rect x="0" y="0" width="100" height="100" rx="20" fill="#030712"/>
    <rect x="16" y="16" width="68" height="68" rx="10" fill="none" stroke="#ffffff" stroke-width="5"/>
    <rect x="26" y="48" width="12" height="26" rx="2" fill="#0ea5e9"/>
    <rect x="44" y="38" width="12" height="36" rx="2" fill="#0ea5e9"/>
    <rect x="62" y="28" width="12" height="46" rx="2" fill="#0ea5e9"/>
    <text x="50" y="120" font-family="system-ui, sans-serif" font-size="9" fill="#64748b" text-anchor="middle">100px</text>
  </g>
  
  <!-- 64px dark -->
  <g transform="translate(670, 1095)">
    <rect x="0" y="18" width="64" height="64" rx="14" fill="#030712"/>
    <rect x="10" y="28" width="44" height="44" rx="7" fill="none" stroke="#ffffff" stroke-width="4"/>
    <rect x="16" y="52" width="8" height="14" rx="1.5" fill="#0ea5e9"/>
    <rect x="28" y="46" width="8" height="20" rx="1.5" fill="#0ea5e9"/>
    <rect x="40" y="40" width="8" height="26" rx="1.5" fill="#0ea5e9"/>
    <text x="32" y="120" font-family="system-ui, sans-serif" font-size="9" fill="#64748b" text-anchor="middle">64px</text>
  </g>
  
  <!-- 48px dark -->
  <g transform="translate(760, 1095)">
    <rect x="0" y="26" width="48" height="48" rx="10" fill="#030712"/>
    <rect x="8" y="34" width="32" height="32" rx="5" fill="none" stroke="#ffffff" stroke-width="3"/>
    <rect x="12" y="52" width="6" height="10" rx="1" fill="#0ea5e9"/>
    <rect x="21" y="48" width="6" height="14" rx="1" fill="#0ea5e9"/>
    <rect x="30" y="44" width="6" height="18" rx="1" fill="#0ea5e9"/>
    <text x="24" y="120" font-family="system-ui, sans-serif" font-size="9" fill="#64748b" text-anchor="middle">48px</text>
  </g>
  
  <!-- 32px dark -->
  <g transform="translate(835, 1095)">
    <rect x="0" y="34" width="32" height="32" rx="7" fill="#030712"/>
    <rect x="5" y="39" width="22" height="22" rx="4" fill="none" stroke="#ffffff" stroke-width="2"/>
    <rect x="8" y="51" width="4" height="7" rx="0.5" fill="#0ea5e9"/>
    <rect x="14" y="48" width="4" height="10" rx="0.5" fill="#0ea5e9"/>
    <rect x="20" y="45" width="4" height="13" rx="0.5" fill="#0ea5e9"/>
    <text x="16" y="120" font-family="system-ui, sans-serif" font-size="9" fill="#64748b" text-anchor="middle">32px</text>
  </g>
  
  <!-- 16px dark -->
  <g transform="translate(895, 1095)">
    <rect x="0" y="42" width="16" height="16" rx="3" fill="#030712"/>
    <rect x="2" y="44" width="12" height="12" rx="2" fill="none" stroke="#ffffff" stroke-width="1.5"/>
    <rect x="4" y="51" width="2" height="4" rx="0.5" fill="#0ea5e9"/>
    <rect x="7" y="49" width="2" height="6" rx="0.5" fill="#0ea5e9"/>
    <rect x="10" y="47" width="2" height="8" rx="0.5" fill="#0ea5e9"/>
    <text x="8" y="120" font-family="system-ui, sans-serif" font-size="9" fill="#64748b" text-anchor="middle">16px</text>
  </g>
  
  <!-- Monochrome - FIXED -->
  <text x="1000" y="1075" font-family="system-ui, sans-serif" font-size="10" fill="#94a3b8" font-weight="500">MONOCHROME</text>
  
  <g transform="translate(1000, 1095)">
    <rect x="0" y="0" width="100" height="100" rx="20" fill="#ffffff" stroke="#e2e8f0" stroke-width="1"/>
    <rect x="16" y="16" width="68" height="68" rx="10" fill="none" stroke="#030712" stroke-width="5"/>
    <rect x="26" y="48" width="12" height="26" rx="2" fill="#030712"/>
    <rect x="44" y="38" width="12" height="36" rx="2" fill="#030712"/>
    <rect x="62" y="28" width="12" height="46" rx="2" fill="#030712"/>
    <text x="50" y="120" font-family="system-ui, sans-serif" font-size="9" fill="#64748b" text-anchor="middle">Black</text>
  </g>
  
  <g transform="translate(1120, 1095)">
    <rect x="0" y="0" width="100" height="100" rx="20" fill="#030712"/>
    <rect x="16" y="16" width="68" height="68" rx="10" fill="none" stroke="#ffffff" stroke-width="5"/>
    <rect x="26" y="48" width="12" height="26" rx="2" fill="#ffffff"/>
    <rect x="44" y="38" width="12" height="36" rx="2" fill="#ffffff"/>
    <rect x="62" y="28" width="12" height="46" rx="2" fill="#ffffff"/>
    <text x="50" y="120" font-family="system-ui, sans-serif" font-size="9" fill="#64748b" text-anchor="middle">White</text>
  </g>
  
  <!-- Section 4: Color Palette -->
  <text x="100" y="1280" font-family="system-ui, sans-serif" font-size="13" fill="#0ea5e9" font-weight="600" letter-spacing="2">04 — COLOR PALETTE</text>
  <line x1="100" y1="1295" x2="1300" y2="1295" stroke="#e2e8f0" stroke-width="1"/>
  
  <!-- Primary color -->
  <text x="100" y="1335" font-family="system-ui, sans-serif" font-size="10" fill="#94a3b8" font-weight="500">PRIMARY BRAND COLOR</text>
  
  <g transform="translate(100, 1355)">
    <rect x="0" y="0" width="300" height="120" rx="12" fill="#0ea5e9"/>
    <text x="24" y="75" font-family="system-ui, sans-serif" font-size="22" fill="#ffffff" font-weight="600">Sky Blue</text>
    <text x="24" y="100" font-family="monospace" font-size="14" fill="#ffffff" opacity="0.9">#0ea5e9</text>
    <text x="276" y="100" font-family="system-ui, sans-serif" font-size="10" fill="#ffffff" text-anchor="end" opacity="0.7">METRIC BARS</text>
  </g>
  
  <!-- Frame colors -->
  <text x="480" y="1335" font-family="system-ui, sans-serif" font-size="10" fill="#94a3b8" font-weight="500">FRAME COLORS (ADAPTIVE)</text>
  
  <g transform="translate(480, 1355)">
    <rect x="0" y="0" width="200" height="120" rx="12" fill="#030712"/>
    <text x="24" y="75" font-family="system-ui, sans-serif" font-size="18" fill="#ffffff" font-weight="600">Black</text>
    <text x="24" y="100" font-family="monospace" font-size="12" fill="#64748b">#030712</text>
    <text x="176" y="100" font-family="system-ui, sans-serif" font-size="9" fill="#64748b" text-anchor="end">LIGHT MODE</text>
  </g>
  
  <g transform="translate(700, 1355)">
    <rect x="0" y="0" width="200" height="120" rx="12" fill="#ffffff" stroke="#030712" stroke-width="2"/>
    <text x="24" y="75" font-family="system-ui, sans-serif" font-size="18" fill="#030712" font-weight="600">White</text>
    <text x="24" y="100" font-family="monospace" font-size="12" fill="#64748b">#ffffff</text>
    <text x="176" y="100" font-family="system-ui, sans-serif" font-size="9" fill="#64748b" text-anchor="end">DARK MODE</text>
  </g>
  
  <!-- Backgrounds -->
  <text x="980" y="1335" font-family="system-ui, sans-serif" font-size="10" fill="#94a3b8" font-weight="500">BACKGROUNDS</text>
  
  <g transform="translate(980, 1355)">
    <rect x="0" y="0" width="140" height="120" rx="12" fill="#ffffff" stroke="#e2e8f0" stroke-width="1"/>
    <text x="20" y="75" font-family="system-ui, sans-serif" font-size="16" fill="#030712" font-weight="600">Light</text>
    <text x="20" y="100" font-family="monospace" font-size="11" fill="#64748b">#ffffff</text>
  </g>
  
  <g transform="translate(1140, 1355)">
    <rect x="0" y="0" width="140" height="120" rx="12" fill="#030712"/>
    <text x="20" y="75" font-family="system-ui, sans-serif" font-size="16" fill="#ffffff" font-weight="600">Dark</text>
    <text x="20" y="100" font-family="monospace" font-size="11" fill="#64748b">#030712</text>
  </g>
  
  <!-- Section 5: Clear Space & Sizing -->
  <text x="100" y="1545" font-family="system-ui, sans-serif" font-size="13" fill="#0ea5e9" font-weight="600" letter-spacing="2">05 — CLEAR SPACE & MINIMUM SIZE</text>
  <line x1="100" y1="1560" x2="1300" y2="1560" stroke="#e2e8f0" stroke-width="1"/>
  
  <!-- Clear space diagram - FIXED -->
  <text x="100" y="1600" font-family="system-ui, sans-serif" font-size="10" fill="#94a3b8" font-weight="500">CLEAR SPACE = WIDTH OF ONE BAR ("X")</text>
  
  <g transform="translate(100, 1620)">
    <rect x="0" y="0" width="180" height="160" fill="none" stroke="#0ea5e9" stroke-width="1" stroke-dasharray="6,4" opacity="0.6"/>
    
    <text x="80" y="-8" font-family="system-ui, sans-serif" font-size="11" fill="#0ea5e9" text-anchor="middle" font-weight="500">x</text>
    <text x="-12" y="85" font-family="system-ui, sans-serif" font-size="11" fill="#0ea5e9" text-anchor="middle" font-weight="500">x</text>
    <text x="192" y="85" font-family="system-ui, sans-serif" font-size="11" fill="#0ea5e9" text-anchor="middle" font-weight="500">x</text>
    <text x="80" y="175" font-family="system-ui, sans-serif" font-size="11" fill="#0ea5e9" text-anchor="middle" font-weight="500">x</text>
    
    <!-- Logo with proper bar centering -->
    <g transform="translate(20, 20)">
      <rect x="0" y="0" width="130" height="110" rx="10" fill="none" stroke="#030712" stroke-width="5"/>
      <!-- 3 bars: 18px wide, 10px gap = 18+10+18+10+18 = 74px. Center in 130: (130-74)/2 = 28 -->
      <rect x="28" y="60" width="18" height="35" rx="2" fill="#0ea5e9"/>
      <rect x="56" y="48" width="18" height="47" rx="2" fill="#0ea5e9"/>
      <rect x="84" y="36" width="18" height="59" rx="2" fill="#0ea5e9"/>
    </g>
    
    <line x1="210" y1="56" x2="210" y2="91" stroke="#0ea5e9" stroke-width="1"/>
    <line x1="205" y1="56" x2="215" y2="56" stroke="#0ea5e9" stroke-width="1"/>
    <line x1="205" y1="91" x2="215" y2="91" stroke="#0ea5e9" stroke-width="1"/>
    <text x="230" y="78" font-family="system-ui, sans-serif" font-size="11" fill="#0ea5e9" font-weight="500">x</text>
  </g>
  
  <!-- Minimum sizes - FIXED -->
  <text x="400" y="1600" font-family="system-ui, sans-serif" font-size="10" fill="#94a3b8" font-weight="500">MINIMUM SIZES</text>
  
  <g transform="translate(400, 1640)">
    <rect x="0" y="0" width="32" height="32" rx="6" fill="#ffffff" stroke="#e2e8f0" stroke-width="1"/>
    <rect x="5" y="5" width="22" height="22" rx="4" fill="none" stroke="#030712" stroke-width="2"/>
    <!-- 3 bars: 4px wide, 2px gap = 16px. Center in 22: (22-16)/2 = 3, start at 5+3=8 -->
    <rect x="8" y="17" width="4" height="7" rx="0.5" fill="#0ea5e9"/>
    <rect x="14" y="14" width="4" height="10" rx="0.5" fill="#0ea5e9"/>
    <rect x="20" y="11" width="4" height="13" rx="0.5" fill="#0ea5e9"/>
    <text x="16" y="52" font-family="system-ui, sans-serif" font-size="10" fill="#030712" text-anchor="middle" font-weight="600">32px</text>
    <text x="16" y="66" font-family="system-ui, sans-serif" font-size="9" fill="#94a3b8" text-anchor="middle">Digital Min</text>
  </g>
  
  <g transform="translate(500, 1640)">
    <rect x="0" y="0" width="48" height="48" rx="8" fill="#ffffff" stroke="#e2e8f0" stroke-width="1"/>
    <rect x="8" y="8" width="32" height="32" rx="5" fill="none" stroke="#030712" stroke-width="3"/>
    <!-- 3 bars: 6px wide, 3px gap = 24px. Center in 32: (32-24)/2 = 4, start at 8+4=12 -->
    <rect x="12" y="26" width="6" height="10" rx="1" fill="#0ea5e9"/>
    <rect x="21" y="22" width="6" height="14" rx="1" fill="#0ea5e9"/>
    <rect x="30" y="18" width="6" height="18" rx="1" fill="#0ea5e9"/>
    <text x="24" y="68" font-family="system-ui, sans-serif" font-size="10" fill="#030712" text-anchor="middle" font-weight="600">0.5"</text>
    <text x="24" y="82" font-family="system-ui, sans-serif" font-size="9" fill="#94a3b8" text-anchor="middle">Print Min</text>
  </g>
  
  <!-- Section 6: Usage Examples - FIXED -->
  <text x="700" y="1600" font-family="system-ui, sans-serif" font-size="10" fill="#94a3b8" font-weight="500">USAGE EXAMPLES</text>
  
  <!-- Business card -->
  <g transform="translate(700, 1620)">
    <rect x="0" y="0" width="280" height="160" rx="10" fill="#ffffff" stroke="#e2e8f0" stroke-width="1"/>
    <!-- Icon 56x50, frame inside -->
    <rect x="24" y="24" width="56" height="50" rx="6" fill="none" stroke="#030712" stroke-width="4"/>
    <!-- 3 bars: 9px wide, 5px gap = 9+5+9+5+9 = 37px. Center in 56: (56-37)/2 ≈ 10, start at 24+10=34 -->
    <rect x="34" y="50" width="9" height="16" rx="1" fill="#0ea5e9"/>
    <rect x="48" y="44" width="9" height="22" rx="1" fill="#0ea5e9"/>
    <rect x="62" y="38" width="9" height="28" rx="1" fill="#0ea5e9"/>
    <text x="100" y="46" font-family="system-ui, sans-serif" font-size="16" fill="#030712" font-weight="700">METRICFRAME</text>
    <text x="100" y="62" font-family="system-ui, sans-serif" font-size="7" fill="#64748b" letter-spacing="1.5">AI & CYBER RISK METRICS</text>
    <text x="24" y="100" font-family="system-ui, sans-serif" font-size="11" fill="#030712" font-weight="500">John Smith</text>
    <text x="24" y="116" font-family="system-ui, sans-serif" font-size="9" fill="#64748b">Chief Risk Officer</text>
    <text x="24" y="142" font-family="system-ui, sans-serif" font-size="9" fill="#0ea5e9">john@metricframe.com</text>
  </g>
  
  <!-- App Icons - FIXED -->
  <g transform="translate(1020, 1620)">
    <rect x="0" y="0" width="100" height="100" rx="22" fill="#030712"/>
    <rect x="16" y="16" width="68" height="68" rx="10" fill="none" stroke="#ffffff" stroke-width="4"/>
    <rect x="26" y="48" width="12" height="26" rx="2" fill="#0ea5e9"/>
    <rect x="44" y="38" width="12" height="36" rx="2" fill="#0ea5e9"/>
    <rect x="62" y="28" width="12" height="46" rx="2" fill="#0ea5e9"/>
    <text x="50" y="125" font-family="system-ui, sans-serif" font-size="9" fill="#030712" text-anchor="middle">MetricFrame</text>
    <text x="50" y="140" font-family="system-ui, sans-serif" font-size="8" fill="#94a3b8" text-anchor="middle">App Icon</text>
  </g>
  
  <g transform="translate(1150, 1620)">
    <rect x="0" y="0" width="100" height="100" rx="22" fill="#0ea5e9"/>
    <rect x="16" y="16" width="68" height="68" rx="10" fill="none" stroke="#ffffff" stroke-width="4" opacity="0.3"/>
    <rect x="26" y="48" width="12" height="26" rx="2" fill="#ffffff"/>
    <rect x="44" y="38" width="12" height="36" rx="2" fill="#ffffff"/>
    <rect x="62" y="28" width="12" height="46" rx="2" fill="#ffffff"/>
    <text x="50" y="125" font-family="system-ui, sans-serif" font-size="9" fill="#030712" text-anchor="middle">MetricFrame</text>
    <text x="50" y="140" font-family="system-ui, sans-serif" font-size="8" fill="#94a3b8" text-anchor="middle">Alternate</text>
  </g>
  
  <!-- Footer -->
  <rect x="0" y="1900" width="1400" height="100" fill="#030712"/>
  <text x="700" y="1945" font-family="system-ui, sans-serif" font-size="11" fill="#ffffff" text-anchor="middle" opacity="0.9">© MetricFrame • All logos and marks are property of MetricFrame</text>
  <text x="700" y="1970" font-family="system-ui, sans-serif" font-size="10" fill="#ffffff" text-anchor="middle" opacity="0.6">For brand usage inquiries: brand@metricframe.com</text>
  
</svg>
